<svg xmlns="http://www.w3.org/2000/svg" width="1600" height="900" viewBox="0 0 1600 900">
<defs><linearGradient id="bg" x1="0" y1="0" x2="1" y2="1"><stop offset="0" stop-color="#071833"/><stop offset="0.55" stop-color="#0b1f4d"/><stop offset="1" stop-color="#132f63"/></linearGradient><linearGradient id="gold" x1="0" x2="1"><stop offset="0" stop-color="#f7e8a8"/><stop offset=".55" stop-color="#d4af37"/><stop offset="1" stop-color="#9b7412"/></linearGradient><filter id="shadow"><feDropShadow dx="0" dy="18" stdDeviation="18" flood-color="#000" flood-opacity=".35"/></filter></defs>
<rect width="1600" height="900" fill="url(#bg)"/>
<circle cx="1280" cy="120" r="380" fill="#d4af37" opacity=".08"/><circle cx="1420" cy="740" r="260" fill="#ffffff" opacity=".05"/>
<g opacity=".35" stroke="#d4af37" stroke-width="2" fill="none"><path d="M0 720 C220 620 340 760 560 650 S980 550 1600 690"/><path d="M0 770 C300 650 480 800 760 690 S1150 630 1600 760"/></g>
<g transform="translate(850 245)" filter="url(#shadow)">
<rect x="0" y="-20" width="86" height="515" fill="#101d3c"/><rect x="110" y="-90" width="120" height="585" fill="#172b59"/><rect x="260" y="50" width="90" height="445" fill="#10264e"/><rect x="385" y="-130" width="135" height="625" fill="#1e376e"/><rect x="555" y="20" width="105" height="475" fill="#132b5d"/>
<g fill="#f7e8a8" opacity=".8"><rect x="22" y="20" width="14" height="26"/><rect x="50" y="20" width="14" height="26"/><rect x="145" y="-40" width="18" height="30"/><rect x="180" y="-40" width="18" height="30"/><rect x="415" y="-80" width="18" height="30"/><rect x="455" y="-80" width="18" height="30"/></g>
</g>
<g transform="translate(100 140)"><text x="0" y="0" font-family="Arial, sans-serif" font-size="30" font-weight="700" fill="#d4af37" letter-spacing="8">LOCATION ADVANTAGE</text><text x="0" y="92" font-family="Arial, sans-serif" font-size="78" font-weight="900" fill="#fff">Prime Eastwood</text><text x="0" y="172" font-family="Arial, sans-serif" font-size="78" font-weight="900" fill="#fff">Location</text><text x="0" y="235" font-family="Arial, sans-serif" font-size="32" fill="#e8edf7">Live, work and enjoy in one of Quezon City’s</text><text x="0" y="278" font-family="Arial, sans-serif" font-size="32" fill="#e8edf7">most established township communities.</text></g>
<g transform="translate(110 520)">
<rect width="425" height="145" rx="28" fill="#fff" opacity=".95"/><circle cx="72" cy="72" r="38" fill="url(#gold)"/><path d="M72 38c-22 0-40 17-40 39 0 31 40 66 40 66s40-35 40-66c0-22-18-39-40-39zm0 54a16 16 0 1 1 0-32 16 16 0 0 1 0 32z" fill="#071833" transform="scale(.5) translate(72 72)"/>
<text x="130" y="62" font-family="Arial" font-size="28" font-weight="900" fill="#071833">Lifestyle Convenience</text><text x="130" y="100" font-family="Arial" font-size="22" fill="#536070">Mall, dining, offices, banks</text></g>
<g transform="translate(570 520)"><rect width="425" height="145" rx="28" fill="#fff" opacity=".95"/><circle cx="72" cy="72" r="38" fill="url(#gold)"/><text x="54" y="86" font-family="Arial" font-size="42" font-weight="900" fill="#071833">✓</text><text x="130" y="62" font-family="Arial" font-size="28" font-weight="900" fill="#071833">Walkable Township</text><text x="130" y="100" font-family="Arial" font-size="22" fill="#536070">Live-work-play environment</text></g>
<rect x="100" y="780" width="300" height="6" fill="url(#gold)" rx="3"/>
</svg>
