<svg xmlns="http://www.w3.org/2000/svg" width="1600" height="900" viewBox="0 0 1600 900">
<defs><linearGradient id="bg" x1="0" x2="1"><stop offset="0" stop-color="#071833"/><stop offset=".55" stop-color="#0b1f4d"/><stop offset="1" stop-color="#ffffff"/></linearGradient><linearGradient id="gold" x1="0" x2="1"><stop offset="0" stop-color="#f8e9aa"/><stop offset=".6" stop-color="#d4af37"/><stop offset="1" stop-color="#966f12"/></linearGradient><filter id="shadow"><feDropShadow dx="0" dy="18" stdDeviation="18" flood-opacity=".3"/></filter></defs>
<rect width="1600" height="900" fill="url(#bg)"/><circle cx="1290" cy="230" r="520" fill="#fff" opacity=".5"/><g transform="translate(840 180)" filter="url(#shadow)"><rect width="590" height="440" rx="40" fill="#f7f2e7"/><rect x="55" y="70" width="480" height="245" rx="24" fill="#fff"/><rect x="90" y="115" width="185" height="150" rx="18" fill="#d7c7a2"/><rect x="310" y="105" width="170" height="175" rx="18" fill="#0b1f4d" opacity=".9"/><rect x="110" y="285" width="335" height="40" rx="20" fill="#0b1f4d"/><circle cx="500" cy="345" r="52" fill="url(#gold)"/><path d="M488 345a22 22 0 1 1 18 21l-11 15h-15l9-17a22 22 0 0 1-1-19z" fill="#071833"/></g>
<g transform="translate(100 135)"><text x="0" y="0" font-family="Arial" font-size="30" font-weight="700" fill="#d4af37" letter-spacing="8">MOVE-IN READY</text><text x="0" y="92" font-family="Arial" font-size="72" font-weight="900" fill="#fff">Ready for</text><text x="0" y="172" font-family="Arial" font-size="72" font-weight="900" fill="#fff">Occupancy</text><text x="0" y="235" font-family="Arial" font-size="32" fill="#e9eef8">Semi-furnished and ready for immediate</text><text x="0" y="278" font-family="Arial" font-size="32" fill="#e9eef8">move-in in Eastwood City.</text></g>
<g transform="translate(120 535)"><rect width="300" height="140" rx="28" fill="#fff" opacity=".96"/><text x="32" y="58" font-family="Arial" font-size="28" font-weight="900" fill="#071833">Strong Address</text><text x="32" y="95" font-family="Arial" font-size="28" font-weight="900" fill="#071833">Value</text><circle cx="250" cy="70" r="34" fill="url(#gold)"/></g>
<g transform="translate(455 535)"><rect width="300" height="140" rx="28" fill="#fff" opacity=".96"/><text x="32" y="58" font-family="Arial" font-size="28" font-weight="900" fill="#071833">Comfortable</text><text x="32" y="95" font-family="Arial" font-size="28" font-weight="900" fill="#071833">City Living</text><circle cx="250" cy="70" r="34" fill="url(#gold)"/></g>
<rect x="100" y="780" width="300" height="6" fill="url(#gold)" rx="3"/>
</svg>
