<svg xmlns="http://www.w3.org/2000/svg" width="1600" height="900" viewBox="0 0 1600 900">
<defs><linearGradient id="bg" x1="0" y1="1" x2="1" y2="0"><stop offset="0" stop-color="#071833"/><stop offset=".65" stop-color="#0b1f4d"/><stop offset="1" stop-color="#193a78"/></linearGradient><linearGradient id="gold" x1="0" x2="1"><stop offset="0" stop-color="#f8e9aa"/><stop offset=".55" stop-color="#d4af37"/><stop offset="1" stop-color="#946b10"/></linearGradient><filter id="shadow"><feDropShadow dx="0" dy="18" stdDeviation="18" flood-opacity=".34"/></filter></defs>
<rect width="1600" height="900" fill="url(#bg)"/><path d="M0 700 L250 560 L440 610 L670 390 L850 450 L1070 250 L1300 315 L1600 120 L1600 900 L0 900z" fill="#d4af37" opacity=".11"/>
<g transform="translate(870 155)" filter="url(#shadow)"><rect width="570" height="470" rx="36" fill="#fff" opacity=".96"/><text x="50" y="72" font-family="Arial" font-size="26" font-weight="900" fill="#071833">Investment Snapshot</text><g transform="translate(50 120)"><rect width="120" height="270" rx="18" fill="#edf2f9"/><rect x="170" y="65" width="120" height="205" rx="18" fill="#edf2f9"/><rect x="340" y="-20" width="120" height="290" rx="18" fill="#edf2f9"/><rect x="18" y="150" width="84" height="120" rx="12" fill="url(#gold)"/><rect x="188" y="90" width="84" height="180" rx="12" fill="url(#gold)"/><rect x="358" y="40" width="84" height="230" rx="12" fill="url(#gold)"/></g><path d="M95 350 C220 255 300 295 415 190 S530 120 530 120" fill="none" stroke="#0b1f4d" stroke-width="12" stroke-linecap="round"/><path d="M530 120 l-48 -8 l22 43z" fill="#0b1f4d"/></g>
<g transform="translate(100 135)"><text x="0" y="0" font-family="Arial" font-size="30" font-weight="700" fill="#d4af37" letter-spacing="8">INVESTMENT ADVANTAGE</text><text x="0" y="92" font-family="Arial" font-size="72" font-weight="900" fill="#fff">Excellent Rental</text><text x="0" y="172" font-family="Arial" font-size="72" font-weight="900" fill="#fff">Income Potential</text><text x="0" y="235" font-family="Arial" font-size="32" fill="#e9eef8">Designed for long-term value and</text><text x="0" y="278" font-family="Arial" font-size="32" fill="#e9eef8">consistent demand from professionals.</text></g>
<g transform="translate(120 540)"><rect width="300" height="140" rx="28" fill="#fff" opacity=".95"/><text x="32" y="58" font-family="Arial" font-size="28" font-weight="900" fill="#071833">Professional</text><text x="32" y="95" font-family="Arial" font-size="28" font-weight="900" fill="#071833">Tenant Market</text><circle cx="250" cy="70" r="34" fill="url(#gold)"/></g>
<g transform="translate(455 540)"><rect width="300" height="140" rx="28" fill="#fff" opacity=".95"/><text x="32" y="58" font-family="Arial" font-size="28" font-weight="900" fill="#071833">Long-Term</text><text x="32" y="95" font-family="Arial" font-size="28" font-weight="900" fill="#071833">Value Growth</text><circle cx="250" cy="70" r="34" fill="url(#gold)"/></g>
<rect x="100" y="780" width="300" height="6" fill="url(#gold)" rx="3"/>
</svg>
