<svg xmlns="http://www.w3.org/2000/svg" width="640" height="420" viewBox="0 0 640 420">
<defs>
<linearGradient id="shade" x1="0" y1="0" x2="0" y2="1"><stop offset="0" stop-color="#071833" stop-opacity="0"/><stop offset=".62" stop-color="#071833" stop-opacity=".72"/><stop offset="1" stop-color="#071833" stop-opacity=".96"/></linearGradient>
<linearGradient id="gold" x1="0" y1="0" x2="1" y2="1"><stop stop-color="#f8e7a1"/><stop offset=".55" stop-color="#d4af37"/><stop offset="1" stop-color="#9a6b0d"/></linearGradient>
<linearGradient id="warm" x1="0" x2="1"><stop stop-color="#f8e7a1"/><stop offset="1" stop-color="#2e5a91"/></linearGradient>
<linearGradient id="sky" x1="0" y1="0" x2="0" y2="1"><stop stop-color="#67b4ff"/><stop offset="1" stop-color="#071833"/></linearGradient>
</defs>
<rect width="640" height="360" fill="#172b4a"/><rect x="0" y="0" width="640" height="360" fill="url(#warm)" opacity=".55"/><rect x="340" y="70" width="210" height="160" rx="18" fill="#f7f3ea" opacity=".18"/><rect x="65" y="165" width="250" height="85" rx="28" fill="#c9aa66" opacity=".65"/><rect x="90" y="115" width="160" height="58" rx="12" fill="#ffffff" opacity=".18"/><rect x="130" y="250" width="120" height="22" rx="11" fill="#071833" opacity=".65"/>
<rect width="640" height="420" fill="url(#shade)"/>
<circle cx="70" cy="260" r="43" fill="#071833" opacity=".78" stroke="#d4af37" stroke-width="3"/>
<path d="M64 58 L64 42 C64 23 80 10 100 10 C120 10 136 23 136 42 L136 58 L156 58 L148 150 L52 150 L44 58 Z M82 58 L118 58 L118 42 C118 34 110 28 100 28 C90 28 82 34 82 42 Z" transform="translate(18 210) scale(.52)" fill="url(#gold)"/>
<text x="36" y="322" font-family="Arial, Helvetica, sans-serif" font-size="25" font-weight="900" fill="#fff">Restaurants &amp; Cafes</text>
<text x="36" y="356" font-family="Arial, Helvetica, sans-serif" font-size="15" fill="#ffffff" opacity=".84">Dining and cafe options within the township.</text>
<rect x="36" y="382" width="148" height="4" rx="2" fill="#d4af37"/>
</svg>