<svg xmlns="http://www.w3.org/2000/svg" width="640" height="420" viewBox="0 0 640 420">
<defs>
<linearGradient id="shade" x1="0" y1="0" x2="0" y2="1"><stop offset="0" stop-color="#071833" stop-opacity="0"/><stop offset=".62" stop-color="#071833" stop-opacity=".72"/><stop offset="1" stop-color="#071833" stop-opacity=".96"/></linearGradient>
<linearGradient id="gold" x1="0" y1="0" x2="1" y2="1"><stop stop-color="#f8e7a1"/><stop offset=".55" stop-color="#d4af37"/><stop offset="1" stop-color="#9a6b0d"/></linearGradient>
<linearGradient id="warm" x1="0" x2="1"><stop stop-color="#f8e7a1"/><stop offset="1" stop-color="#2e5a91"/></linearGradient>
<linearGradient id="sky" x1="0" y1="0" x2="0" y2="1"><stop stop-color="#67b4ff"/><stop offset="1" stop-color="#071833"/></linearGradient>
</defs>
<rect width="640" height="360" fill="#071833"/><path d="M70 260 C165 210 200 250 280 175 S420 105 555 50" stroke="#d4af37" stroke-width="14" fill="none" stroke-linecap="round"/><polygon points="555,50 515,48 545,88" fill="#d4af37"/><rect x="105" y="205" width="42" height="75" fill="#ffffff" opacity=".2"/><rect x="180" y="176" width="42" height="104" fill="#ffffff" opacity=".28"/><rect x="255" y="136" width="42" height="144" fill="#d4af37" opacity=".55"/><rect x="330" y="95" width="42" height="185" fill="#ffffff" opacity=".32"/><rect x="405" y="64" width="42" height="216" fill="#d4af37" opacity=".65"/>
<rect width="640" height="420" fill="url(#shade)"/>
<circle cx="70" cy="260" r="43" fill="#071833" opacity=".78" stroke="#d4af37" stroke-width="3"/>
<path d="M80 180 L98 20 L122 20 L140 180 L116 180 L111 138 L89 138 L84 180 Z M94 100 L106 100 L103 64 L97 64 Z" transform="translate(18 210) scale(.52)" fill="url(#gold)"/>
<text x="36" y="322" font-family="Arial, Helvetica, sans-serif" font-size="25" font-weight="900" fill="#fff">Major Road Access</text>
<text x="36" y="356" font-family="Arial, Helvetica, sans-serif" font-size="15" fill="#ffffff" opacity=".84">Accessible to key Metro Manila routes.</text>
<rect x="36" y="382" width="148" height="4" rx="2" fill="#d4af37"/>
</svg>