<svg xmlns="http://www.w3.org/2000/svg" width="640" height="420" viewBox="0 0 640 420">
<defs>
<linearGradient id="shade" x1="0" y1="0" x2="0" y2="1"><stop offset="0" stop-color="#071833" stop-opacity="0"/><stop offset=".62" stop-color="#071833" stop-opacity=".72"/><stop offset="1" stop-color="#071833" stop-opacity=".96"/></linearGradient>
<linearGradient id="gold" x1="0" y1="0" x2="1" y2="1"><stop stop-color="#f8e7a1"/><stop offset=".55" stop-color="#d4af37"/><stop offset="1" stop-color="#9a6b0d"/></linearGradient>
<linearGradient id="warm" x1="0" x2="1"><stop stop-color="#f8e7a1"/><stop offset="1" stop-color="#2e5a91"/></linearGradient>
<linearGradient id="sky" x1="0" y1="0" x2="0" y2="1"><stop stop-color="#67b4ff"/><stop offset="1" stop-color="#071833"/></linearGradient>
</defs>
<rect x="0" y="0" width="640" height="360" fill="#071833"/><circle cx="505" cy="72" r="80" fill="#d4af37" opacity=".22"/><rect x="355" y="86" width="65" height="210" rx="8" fill="#203a62"/><rect x="435" y="45" width="72" height="251" rx="8" fill="#2c4d7a"/><rect x="520" y="116" width="58" height="180" rx="8" fill="#1b3155"/><rect x="370" y="110" width="8" height="8" rx="2" fill="#f4d36c" opacity=".75"/><rect x="370" y="140" width="8" height="8" rx="2" fill="#f4d36c" opacity=".75"/><rect x="370" y="170" width="8" height="8" rx="2" fill="#f4d36c" opacity=".75"/><rect x="370" y="200" width="8" height="8" rx="2" fill="#f4d36c" opacity=".75"/><rect x="370" y="230" width="8" height="8" rx="2" fill="#f4d36c" opacity=".75"/><rect x="370" y="260" width="8" height="8" rx="2" fill="#f4d36c" opacity=".75"/><rect x="398" y="110" width="8" height="8" rx="2" fill="#f4d36c" opacity=".75"/><rect x="398" y="140" width="8" height="8" rx="2" fill="#f4d36c" opacity=".75"/><rect x="398" y="170" width="8" height="8" rx="2" fill="#f4d36c" opacity=".75"/><rect x="398" y="200" width="8" height="8" rx="2" fill="#f4d36c" opacity=".75"/><rect x="398" y="230" width="8" height="8" rx="2" fill="#f4d36c" opacity=".75"/><rect x="398" y="260" width="8" height="8" rx="2" fill="#f4d36c" opacity=".75"/><rect x="426" y="110" width="8" height="8" rx="2" fill="#f4d36c" opacity=".75"/><rect x="426" y="140" width="8" height="8" rx="2" fill="#f4d36c" opacity=".75"/><rect x="426" y="170" width="8" height="8" rx="2" fill="#f4d36c" opacity=".75"/><rect x="426" y="200" width="8" height="8" rx="2" fill="#f4d36c" opacity=".75"/><rect x="426" y="230" width="8" height="8" rx="2" fill="#f4d36c" opacity=".75"/><rect x="426" y="260" width="8" height="8" rx="2" fill="#f4d36c" opacity=".75"/><rect x="454" y="110" width="8" height="8" rx="2" fill="#f4d36c" opacity=".75"/><rect x="454" y="140" width="8" height="8" rx="2" fill="#f4d36c" opacity=".75"/><rect x="454" y="170" width="8" height="8" rx="2" fill="#f4d36c" opacity=".75"/><rect x="454" y="200" width="8" height="8" rx="2" fill="#f4d36c" opacity=".75"/><rect x="454" y="230" width="8" height="8" rx="2" fill="#f4d36c" opacity=".75"/><rect x="454" y="260" width="8" height="8" rx="2" fill="#f4d36c" opacity=".75"/><rect x="482" y="110" width="8" height="8" rx="2" fill="#f4d36c" opacity=".75"/><rect x="482" y="140" width="8" height="8" rx="2" fill="#f4d36c" opacity=".75"/><rect x="482" y="170" width="8" height="8" rx="2" fill="#f4d36c" opacity=".75"/><rect x="482" y="200" width="8" height="8" rx="2" fill="#f4d36c" opacity=".75"/><rect x="482" y="230" width="8" height="8" rx="2" fill="#f4d36c" opacity=".75"/><rect x="482" y="260" width="8" height="8" rx="2" fill="#f4d36c" opacity=".75"/><rect x="510" y="110" width="8" height="8" rx="2" fill="#f4d36c" opacity=".75"/><rect x="510" y="140" width="8" height="8" rx="2" fill="#f4d36c" opacity=".75"/><rect x="510" y="170" width="8" height="8" rx="2" fill="#f4d36c" opacity=".75"/><rect x="510" y="200" width="8" height="8" rx="2" fill="#f4d36c" opacity=".75"/><rect x="510" y="230" width="8" height="8" rx="2" fill="#f4d36c" opacity=".75"/><rect x="510" y="260" width="8" height="8" rx="2" fill="#f4d36c" opacity=".75"/><rect x="538" y="110" width="8" height="8" rx="2" fill="#f4d36c" opacity=".75"/><rect x="538" y="140" width="8" height="8" rx="2" fill="#f4d36c" opacity=".75"/><rect x="538" y="170" width="8" height="8" rx="2" fill="#f4d36c" opacity=".75"/><rect x="538" y="200" width="8" height="8" rx="2" fill="#f4d36c" opacity=".75"/><rect x="538" y="230" width="8" height="8" rx="2" fill="#f4d36c" opacity=".75"/><rect x="538" y="260" width="8" height="8" rx="2" fill="#f4d36c" opacity=".75"/><rect x="566" y="110" width="8" height="8" rx="2" fill="#f4d36c" opacity=".75"/><rect x="566" y="140" width="8" height="8" rx="2" fill="#f4d36c" opacity=".75"/><rect x="566" y="170" width="8" height="8" rx="2" fill="#f4d36c" opacity=".75"/><rect x="566" y="200" width="8" height="8" rx="2" fill="#f4d36c" opacity=".75"/><rect x="566" y="230" width="8" height="8" rx="2" fill="#f4d36c" opacity=".75"/><rect x="566" y="260" width="8" height="8" rx="2" fill="#f4d36c" opacity=".75"/>
<rect width="640" height="420" fill="url(#shade)"/>
<circle cx="70" cy="260" r="43" fill="#071833" opacity=".78" stroke="#d4af37" stroke-width="3"/>
<path d="M80 180 L98 20 L122 20 L140 180 L116 180 L111 138 L89 138 L84 180 Z M94 100 L106 100 L103 64 L97 64 Z" transform="translate(18 210) scale(.52)" fill="url(#gold)"/>
<text x="36" y="322" font-family="Arial, Helvetica, sans-serif" font-size="25" font-weight="900" fill="#fff">Public Transport</text>
<text x="36" y="356" font-family="Arial, Helvetica, sans-serif" font-size="15" fill="#ffffff" opacity=".84">Convenient transport options around Eastwood.</text>
<rect x="36" y="382" width="148" height="4" rx="2" fill="#d4af37"/>
</svg>